<svg width="24" height="24" viewBox="0 0 24 24" fill="none" xmlns="http://www.w3.org/2000/svg">
<path d="M13.5479 8.32499C13.5479 7.64174 12.961 7.55849 12.407 7.55849L10.7789 7.54649V10.434H11.4618V9.38849H12.2114C12.9774 9.38849 12.8155 9.81749 12.8275 10.434H13.5186V9.87149C13.5186 9.48824 13.4564 9.24224 13.0607 9.10499C13.3687 8.97974 13.5524 8.65874 13.5479 8.32499ZM12.3238 8.79599H11.4618V8.15849H12.3366C12.5487 8.15849 12.7818 8.20049 12.7818 8.46674C12.7818 8.74199 12.5614 8.79599 12.3238 8.79599ZM11.6282 12.525H9.43344L8.55868 13.4745L7.70492 12.525H4.93597L4.93148 15.4125H7.65544L8.54219 14.454L9.39147 15.4125H10.7325L10.737 14.442C11.524 14.442 12.7901 14.6332 12.7901 13.4715C12.7901 12.7507 12.2781 12.525 11.6282 12.525ZM7.30539 14.8042H5.61509V14.229H7.12624V13.6417H5.61509V13.1212H7.35186L8.09694 13.9627L7.30539 14.8042ZM10.0458 15.1455L8.99194 13.9747L10.0458 12.8332V15.1455ZM11.62 13.854H10.737V13.1205H11.632C11.8651 13.1205 12.057 13.2165 12.057 13.4707C12.057 13.737 11.8651 13.854 11.62 13.854ZM10.3037 8.15849V7.55024H7.99275V10.4377H10.3037V9.84224H8.68386V9.26699H10.258V8.67974H8.68386V8.15924L10.3037 8.15849ZM15.8926 13.3042C15.8926 12.621 15.3056 12.525 14.7644 12.525H13.1236L13.1199 15.4125H13.811L13.8155 14.3587H14.5486C15.0066 14.3587 15.1647 14.442 15.1647 14.9332L15.161 15.4125H15.8521L15.8566 14.838C15.8566 14.4667 15.7816 14.2087 15.3986 14.0715C15.7194 13.9425 15.8903 13.6215 15.8941 13.305L15.8926 13.3042ZM14.6767 13.7707H13.8147V13.1205H14.6895C14.9016 13.1205 15.1347 13.1625 15.1347 13.4287C15.1347 13.716 14.9099 13.7707 14.6767 13.7707ZM7.48079 10.4377V7.55024H6.33169L5.51165 9.50849L4.60766 7.55024H3.47954V10.2877L2.30945 7.55024H1.28927L0.0524705 10.4377H0.797551L1.0644 9.80024H2.50134L2.76744 10.4377H4.17515V8.17949L5.17434 10.4377H5.78225L6.78143 8.17949V10.4377H7.48079ZM1.30876 9.20024L1.775 8.05049L2.25398 9.20024H1.30876ZM21.1898 15.8205V15.633C20.7401 15.8662 21.0272 15.8205 14.664 15.8205C14.664 14.7705 14.6685 14.8245 14.664 14.7705C14.5935 14.766 14.5306 14.766 14.2727 14.766C14.2727 15.5122 14.2682 15.0495 14.2682 15.8205H12.6192C12.6192 15.3165 12.6229 15.183 12.6229 14.604C12.2061 14.8537 11.6739 14.8702 11.195 14.862C11.195 15.4747 11.1905 15.2077 11.1905 15.8205H9.15385C8.94172 15.5827 9.04141 15.6915 8.51221 15.0952C8.37879 15.2407 7.97926 15.6742 7.84209 15.8205H4.42701V11.9745H7.88781C8.0962 12.2077 8.00475 12.1035 8.5332 12.6915C8.66662 12.546 9.04141 12.1327 9.18683 11.9745H11.602C12.0105 11.9745 12.3516 12.054 12.6139 12.2077V11.9745C14.8754 11.9745 15.2914 11.916 15.7666 12.1867V11.9745H19.0235V12.1912C19.498 11.904 19.8398 11.9745 21.7258 11.9745V12.183C22.1545 11.937 22.4169 11.9662 23.9873 11.9745V4.66649C23.9871 4.13606 23.7764 3.6274 23.4015 3.25232C23.0266 2.87725 22.5183 2.66644 21.9881 2.66624H1.99913C1.46899 2.66644 0.960615 2.87725 0.58575 3.25232C0.210884 3.6274 0.000198666 4.13606 0 4.66649V9.24149L0.961709 6.99524H2.61528C2.79443 7.41599 2.68199 7.14974 2.99007 7.87424V6.99524H4.90599C5.02667 7.25399 5.36848 7.99499 5.48466 8.24549C5.72603 7.67924 5.90518 7.24949 6.00937 6.99524H10.2985C10.2985 6.99149 10.7774 6.99524 10.7812 6.99524C12.6012 7.00349 13.0134 6.96224 13.4632 7.21574V6.99524H15.125V7.38299C15.4413 7.12874 15.8701 6.99524 16.4038 6.99524H17.5529C17.5529 7.01624 17.6316 7.00799 17.6488 7.00799H18.9981C19.1727 7.41599 19.1068 7.25774 19.3646 7.86674V7.00799H21.1681C21.372 7.34099 21.1261 6.93299 21.6343 7.77449V7.00799H23.2961V10.8412H21.5639C21.339 10.4662 21.5054 10.7497 21.0137 9.92849V10.8412H18.8152C18.5483 10.2247 18.8107 10.8285 18.5401 10.2037H17.7485C17.5739 10.6207 17.6571 10.4205 17.4824 10.8412H16.3663C15.8543 10.8412 15.4376 10.716 15.1295 10.4707V10.8412H12.3605C12.3478 10.2622 12.3561 9.80774 12.3561 9.80774C12.2811 9.79574 12.2144 9.79949 11.9483 9.79949V10.8457H6.30545V10.371C6.20126 10.6042 6.19302 10.617 6.09332 10.8457H4.86476C4.69836 10.4745 4.74408 10.5787 4.65263 10.371V10.8457H2.44962C2.27422 10.425 2.35817 10.6252 2.18277 10.2082H1.38297C1.20832 10.6252 1.29152 10.425 1.11687 10.8457H0.00899494V19.3335C0.00919361 19.8639 0.219879 20.3726 0.594745 20.7477C0.96961 21.1227 1.47798 21.3335 2.00812 21.3337H22.0009C22.531 21.3335 23.0394 21.1227 23.4142 20.7477C23.7891 20.3726 23.9998 19.8639 24 19.3335V15.567C23.4708 15.9127 22.638 15.8212 21.1891 15.8212L21.1898 15.8205ZM22.701 13.1332H23.9543V12.525H22.584C22.0511 12.525 21.5931 12.7995 21.5931 13.3875C21.5931 14.7622 23.3711 13.9207 23.3711 14.529C23.3711 14.7412 23.192 14.796 23.021 14.796H21.6883L21.6838 15.4125H23.0166C23.3666 15.4125 23.7496 15.3375 23.9535 15.042V13.9672C23.5165 13.392 22.3172 13.9132 22.3172 13.4047C22.3172 13.1632 22.5091 13.134 22.7002 13.134L22.701 13.1332ZM20.3271 14.7915H18.9861L18.9823 15.408H20.3233C20.9395 15.408 21.4147 15.1747 21.4147 14.4915C21.4147 13.1085 19.6285 14.025 19.6285 13.3957C19.6285 13.1625 19.8323 13.1295 20.0115 13.1295H21.2775V12.5212H19.8953C19.3624 12.5212 18.9164 12.7965 18.9164 13.3837C18.9164 14.7585 20.6944 13.9042 20.6944 14.5252C20.6906 14.7502 20.4987 14.7915 20.3278 14.7915H20.3271ZM18.5701 13.1205V12.525H16.2711L16.2666 15.4125H18.5656L18.5693 14.817L16.9622 14.8042V14.229H18.5401V13.6417H16.966V13.1212L18.5701 13.1205ZM16.2254 8.61674C16.2134 8.62499 16.1669 8.70824 16.1669 8.93324C16.1669 9.18299 16.2044 9.25424 16.2126 9.26249C16.2209 9.26624 16.2584 9.28349 16.3543 9.28349L16.6586 8.57924C16.6129 8.57924 16.5709 8.57549 16.5297 8.57549C16.2966 8.57549 16.2381 8.60399 16.2254 8.61674ZM16.4008 7.54574C15.4218 7.54574 14.9848 8.04599 14.9848 9.01649C14.9848 9.94199 15.4098 10.4332 16.3588 10.4332H17.1586L17.4247 9.79574H18.8534L19.1285 10.4332H20.5317V8.27099L21.8307 10.4332H22.8134V7.55849H22.1096V9.56249L20.8982 7.55849H19.8443V10.2832L18.6825 7.55849H17.6496L16.6706 9.82949H16.3625C15.8086 9.82949 15.6924 9.49199 15.6924 9.00074C15.6924 8.00924 16.3461 8.16674 17.0709 8.17949V7.54724L16.4008 7.54574ZM18.154 8.04974L18.6203 9.19949H17.6713L18.154 8.04974ZM13.9437 7.55024V10.4377H14.6475V7.55024H13.9437Z" fill="white"/>
</svg>
