<svg width="25" height="24" viewBox="0 0 25 24" fill="none" xmlns="http://www.w3.org/2000/svg">
<g clip-path="url(#clip0_213_54)">
<path d="M1.49334 16.466C1.54234 16.466 1.58334 16.427 1.59134 16.373L1.86134 14.351L1.59134 12.282C1.58892 12.2571 1.57755 12.234 1.55934 12.2169C1.54112 12.1998 1.51731 12.1899 1.49234 12.189C1.44234 12.189 1.39834 12.229 1.39234 12.282L1.15634 14.351L1.39234 16.372C1.39834 16.427 1.44334 16.466 1.49334 16.466ZM0.605336 15.697C0.653336 15.697 0.693336 15.661 0.700336 15.607L0.909336 14.351L0.700336 13.071C0.693336 13.018 0.653336 12.981 0.605336 12.981C0.554336 12.981 0.515336 13.018 0.507336 13.071L0.333336 14.351L0.507336 15.607C0.515336 15.66 0.554336 15.697 0.605336 15.697ZM2.55334 11.897C2.55133 11.8664 2.53786 11.8377 2.51562 11.8165C2.49339 11.7954 2.46401 11.7834 2.43334 11.783C2.4027 11.7832 2.3733 11.7951 2.35117 11.8163C2.32905 11.8375 2.31587 11.8664 2.31434 11.897L2.09034 14.351L2.31434 16.715C2.31637 16.7454 2.3299 16.7739 2.35219 16.7947C2.37448 16.8155 2.40385 16.8271 2.43434 16.827C2.46492 16.8268 2.49429 16.8151 2.51655 16.7941C2.53882 16.7731 2.55231 16.7445 2.55434 16.714L2.80834 14.351L2.55334 11.897ZM3.38534 16.922C3.42091 16.9214 3.45497 16.9075 3.48086 16.8831C3.50675 16.8587 3.5226 16.8255 3.52534 16.79L3.76634 14.351L3.52634 11.829C3.52359 11.7934 3.50759 11.76 3.48149 11.7356C3.45539 11.7112 3.42108 11.6974 3.38534 11.697C3.34939 11.697 3.3148 11.7107 3.28874 11.7355C3.26267 11.7603 3.24713 11.7941 3.24534 11.83L3.03234 14.351L3.24434 16.79C3.24614 16.8261 3.26182 16.8601 3.2881 16.8848C3.31437 16.9096 3.34921 16.9223 3.38534 16.922ZM4.34334 16.962C4.38462 16.9621 4.42438 16.9464 4.45449 16.9181C4.4846 16.8899 4.50279 16.8512 4.50534 16.81L4.73134 14.351L4.50534 12.011C4.50254 11.97 4.48425 11.9315 4.45417 11.9035C4.42408 11.8755 4.38446 11.8599 4.34334 11.86C4.30225 11.8599 4.26272 11.8757 4.23294 11.904C4.20315 11.9323 4.18539 11.971 4.18334 12.012L3.98334 14.352L4.18334 16.81C4.18539 16.851 4.20315 16.8897 4.23294 16.918C4.26272 16.9463 4.30225 16.9621 4.34334 16.962ZM5.70334 14.352L5.49134 10.547C5.48855 10.5005 5.46821 10.4567 5.43443 10.4246C5.40065 10.3925 5.35594 10.3744 5.30934 10.374C5.26266 10.3742 5.21782 10.3922 5.18398 10.4244C5.15015 10.4565 5.12989 10.5004 5.12734 10.547L4.93934 14.352L5.12734 16.81C5.13206 16.855 5.15327 16.8966 5.18688 16.9269C5.22048 16.9571 5.26411 16.9739 5.30934 16.9739C5.35456 16.9739 5.39819 16.9571 5.4318 16.9269C5.4654 16.8966 5.48661 16.855 5.49134 16.81L5.70334 14.352ZM6.28434 16.987C6.33612 16.9871 6.38593 16.9671 6.42337 16.9313C6.46082 16.8956 6.48302 16.8467 6.48534 16.795V16.797L6.68434 14.353L6.48534 9.677C6.48173 9.62575 6.45883 9.57778 6.42125 9.54275C6.38367 9.50772 6.33421 9.48824 6.28284 9.48824C6.23146 9.48824 6.182 9.50772 6.14442 9.54275C6.10684 9.57778 6.08394 9.62575 6.08034 9.677L5.90634 14.353L6.08134 16.796C6.08417 16.8477 6.10686 16.8964 6.14468 16.9318C6.18251 16.9672 6.23254 16.9876 6.28434 16.987ZM7.26434 9.076C7.20698 9.07568 7.15172 9.09758 7.11015 9.1371C7.06858 9.17662 7.04392 9.2307 7.04134 9.288L6.87934 14.353L7.04134 16.771C7.04392 16.8282 7.06862 16.8822 7.11022 16.9215C7.15182 16.9609 7.20707 16.9826 7.26434 16.982C7.32167 16.9828 7.37707 16.9612 7.41872 16.9218C7.46038 16.8824 7.485 16.8283 7.48734 16.771L7.67234 14.353L7.48734 9.288C7.48525 9.23053 7.46074 9.17616 7.41906 9.13653C7.37738 9.09691 7.32184 9.07518 7.26434 9.076ZM8.25334 16.987C8.31631 16.9881 8.3772 16.9644 8.42284 16.921C8.46849 16.8776 8.49525 16.818 8.49734 16.755V16.757L8.66734 14.353L8.49734 9.118C8.49525 9.05522 8.46863 8.99577 8.4232 8.95239C8.37777 8.90902 8.31714 8.88518 8.25434 8.886C8.19138 8.88466 8.13046 8.90832 8.08491 8.9518C8.03937 8.99529 8.01291 9.05505 8.01134 9.118L7.85834 14.353L8.01134 16.757C8.01334 16.886 8.12034 16.987 8.25334 16.987ZM9.25134 16.985C9.31945 16.9858 9.38516 16.9599 9.43434 16.9128C9.48352 16.8656 9.51224 16.8011 9.51434 16.733V16.735L9.67134 14.354L9.51434 9.251C9.51173 9.18327 9.48279 9.11923 9.43366 9.07253C9.38453 9.02584 9.31911 9.00017 9.25134 9.001C9.18339 8.9999 9.11771 9.02545 9.06837 9.07218C9.01903 9.11891 8.98994 9.18309 8.98734 9.251L8.84934 14.354L8.98834 16.734C8.99134 16.874 9.10734 16.984 9.25134 16.984V16.985ZM10.6823 14.354L10.5403 9.437C10.5377 9.36379 10.5065 9.29452 10.4534 9.24404C10.4003 9.19356 10.3296 9.16591 10.2563 9.167C10.1827 9.16565 10.1116 9.19332 10.0582 9.24404C10.0049 9.29476 9.97369 9.36444 9.97134 9.438L9.84434 14.354L9.97134 16.72C9.97395 16.7934 10.0053 16.8628 10.0586 16.9133C10.1119 16.9638 10.1829 16.9914 10.2563 16.99C10.3301 16.9911 10.4013 16.963 10.4545 16.9119C10.5076 16.8608 10.5385 16.7907 10.5403 16.717V16.72L10.6823 14.354ZM11.2683 16.994C11.4333 16.994 11.5693 16.864 11.5723 16.704L11.7013 14.355L11.5723 8.505C11.5697 8.42639 11.5365 8.35193 11.4796 8.29755C11.4228 8.24316 11.347 8.21317 11.2683 8.214C11.1897 8.21342 11.1139 8.24346 11.0569 8.29777C11 8.35207 10.9664 8.42639 10.9633 8.505L10.8483 14.353L10.9633 16.705C10.9663 16.863 11.1033 16.994 11.2683 16.994ZM12.2773 7.664C12.1931 7.66263 12.1117 7.69432 12.0506 7.75228C11.9895 7.81023 11.9535 7.88983 11.9503 7.974L11.8173 14.356L11.9513 16.671C11.9545 16.7546 11.9902 16.8337 12.051 16.8913C12.1117 16.9489 12.1926 16.9804 12.2763 16.979C12.3604 16.9801 12.4414 16.9481 12.5021 16.8899C12.5627 16.8317 12.598 16.752 12.6003 16.668V16.671L12.7463 14.356L12.6003 7.975C12.598 7.89118 12.5628 7.81163 12.5024 7.75347C12.442 7.69531 12.3612 7.66318 12.2773 7.664ZM13.1993 16.996L21.3803 17C23.0113 17 24.3333 15.732 24.3333 14.167C24.3333 12.603 23.0113 11.335 21.3803 11.335C20.9763 11.335 20.5903 11.414 20.2383 11.555C20.0053 9.003 17.7733 7 15.0513 7C14.3863 7 13.7373 7.126 13.1643 7.339C12.9413 7.422 12.8813 7.507 12.8793 7.672V16.661C12.8825 16.7463 12.9168 16.8275 12.9757 16.8893C13.0347 16.951 13.1143 16.989 13.1993 16.996Z" fill="white"/>
</g>
<defs>
<clipPath id="clip0_213_54">
<rect width="24" height="24" fill="white" transform="translate(0.333336)"/>
</clipPath>
</defs>
</svg>
