<svg width="24" height="24" viewBox="0 0 24 24" fill="none" xmlns="http://www.w3.org/2000/svg">
<path d="M20.1211 18.3868C20.1211 18.6703 19.9299 18.8743 19.6546 18.8743C19.3711 18.8743 19.1881 18.6575 19.1881 18.3868C19.1881 18.1161 19.3711 17.8993 19.6546 17.8993C19.9299 17.8993 20.1211 18.1161 20.1211 18.3868ZM7.17128 17.8993C6.87504 17.8993 6.70479 18.1161 6.70479 18.3868C6.70479 18.6575 6.87579 18.8743 7.17128 18.8743C7.44202 18.8743 7.62501 18.6703 7.62501 18.3868C7.62051 18.1161 7.44202 17.8993 7.17128 17.8993ZM12.0671 17.8873C11.8421 17.8873 11.7041 18.0328 11.6711 18.2495H12.4669C12.4294 18.0118 12.2839 17.8873 12.0671 17.8873ZM16.5587 17.8993C16.2752 17.8993 16.105 18.1161 16.105 18.3868C16.105 18.6575 16.276 18.8743 16.5587 18.8743C16.8422 18.8743 17.0252 18.6703 17.0252 18.3868C17.0252 18.1161 16.8415 17.8993 16.5587 17.8993ZM20.9708 18.9868C20.9708 18.9995 20.9836 19.0078 20.9836 19.0325C20.9836 19.0453 20.9708 19.0535 20.9708 19.0783C20.9581 19.091 20.9581 19.0993 20.9498 19.1113C20.9371 19.124 20.9288 19.1323 20.9041 19.1323C20.8913 19.145 20.8831 19.145 20.8583 19.145C20.8456 19.145 20.8373 19.145 20.8126 19.1323C20.7998 19.1323 20.7916 19.1195 20.7796 19.1113C20.7669 19.0985 20.7586 19.0903 20.7586 19.0783C20.7459 19.0573 20.7459 19.0453 20.7459 19.0325C20.7459 19.0115 20.7459 18.9995 20.7586 18.9868C20.7586 18.9658 20.7714 18.9538 20.7796 18.941C20.7923 18.9283 20.8006 18.9283 20.8126 18.92C20.8336 18.9073 20.8456 18.9073 20.8583 18.9073C20.8793 18.9073 20.8913 18.9073 20.9041 18.92C20.9251 18.932 20.9371 18.932 20.9498 18.941C20.9626 18.95 20.9581 18.9658 20.9708 18.9868ZM20.8793 19.0453C20.9003 19.0453 20.9003 19.0325 20.9123 19.0325C20.9251 19.0198 20.9251 19.0115 20.9251 18.9995C20.9251 18.9875 20.9251 18.9785 20.9123 18.9665C20.9003 18.9665 20.8913 18.9538 20.8666 18.9538H20.7998V19.0993H20.8328V19.0408H20.8456L20.8913 19.0993H20.9243L20.8793 19.0453ZM24 4.66672V19.3333C23.9998 19.8637 23.789 20.3723 23.4139 20.7474C23.0389 21.1225 22.5302 21.3333 21.9998 21.3335H2.00019C1.46977 21.3333 0.961126 21.1225 0.586061 20.7474C0.210996 20.3723 0.000198772 19.8637 0 19.3333V4.66672C0.000198772 4.1363 0.210996 3.62766 0.586061 3.2526C0.961126 2.87753 1.46977 2.66673 2.00019 2.66653H21.9998C22.5302 2.66673 23.0389 2.87753 23.4139 3.2526C23.789 3.62766 23.9998 4.1363 24 4.66672ZM2.66767 10.4828C2.66767 13.6702 5.25509 16.2531 8.43799 16.2531C9.57153 16.2499 10.6794 15.9154 11.6254 15.2909C8.58798 12.8205 8.60898 8.15786 11.6254 5.68669C10.6803 5.06018 9.57185 4.72555 8.43799 4.72447C5.25509 4.72072 2.66767 7.30739 2.66767 10.4828ZM12.0004 15.0164C14.938 12.7245 14.9253 8.25836 12.0004 5.95443C9.07547 8.25836 9.06272 12.729 12.0004 15.0164ZM6.07106 18.1955C6.07106 17.8333 5.83332 17.5956 5.45833 17.5828C5.26634 17.5828 5.06234 17.6413 4.9251 17.8536C4.82535 17.6826 4.65435 17.5828 4.41661 17.5828C4.33022 17.5815 4.24482 17.6013 4.16783 17.6405C4.09084 17.6797 4.0246 17.7372 3.97488 17.8078V17.6248H3.63364V19.154H3.97488C3.97488 18.3665 3.87063 17.8956 4.34986 17.8956C4.7751 17.8956 4.69185 18.3208 4.69185 19.154H5.02109C5.02109 18.3913 4.91685 17.8956 5.39608 17.8956C5.82132 17.8956 5.73732 18.3125 5.73732 19.154H6.07931V18.1955H6.07106ZM7.94225 17.6248H7.61301V17.8078C7.55473 17.7351 7.48036 17.6769 7.39577 17.6379C7.31117 17.5989 7.21866 17.58 7.12553 17.5828C6.69654 17.5828 6.3673 17.9248 6.3673 18.3868C6.3673 18.8533 6.69654 19.1908 7.12553 19.1908C7.34227 19.1908 7.50052 19.1113 7.61301 18.9658V19.1578H7.94225V17.6248ZM9.6297 18.6913C9.6297 18.0666 8.67573 18.3493 8.67573 18.0576C8.67573 17.8198 9.17146 17.8581 9.44671 18.0118L9.58395 17.7411C9.19246 17.4868 8.32549 17.4913 8.32549 18.0831C8.32549 18.6785 9.27946 18.4288 9.27946 18.7078C9.27946 18.9703 8.71698 18.9493 8.41699 18.7408L8.27149 19.0033C8.73798 19.3198 9.6297 19.253 9.6297 18.6905V18.6913ZM11.1049 19.0783L11.0134 18.7948C10.8552 18.8818 10.5049 18.9778 10.5049 18.6238V17.9323H11.0509V17.6241H10.5049V17.1576H10.1629V17.6241H9.84644V17.9286H10.1629V18.6245C10.1629 19.358 10.8837 19.2245 11.1049 19.0783ZM11.6584 18.5203H12.8044C12.8044 17.8453 12.4961 17.5783 12.0791 17.5783C11.6374 17.5783 11.3209 17.9076 11.3209 18.3823C11.3209 19.2365 12.2629 19.3783 12.7294 18.974L12.5711 18.7243C12.2464 18.9913 11.7544 18.9658 11.6584 18.5203ZM14.1213 17.6248C13.9301 17.5416 13.6383 17.5498 13.4883 17.8078V17.6248H13.1463V19.154H13.4883V18.2915C13.4883 17.8078 13.8843 17.8708 14.0216 17.9413L14.1213 17.6248ZM14.563 18.3868C14.563 17.9113 15.0468 17.7576 15.4255 18.0366L15.5838 17.7658C15.1 17.3871 14.2211 17.5948 14.2211 18.3905C14.2211 19.2155 15.154 19.382 15.5838 19.0153L15.4255 18.7445C15.0423 19.0153 14.563 18.8533 14.563 18.386V18.3868ZM17.3417 17.6248H16.9997V17.8078C16.654 17.3496 15.754 17.6083 15.754 18.3868C15.754 19.187 16.687 19.4158 16.9997 18.9658V19.1578H17.3417V17.6248ZM18.7457 17.6248C18.6459 17.5746 18.2874 17.5041 18.1127 17.8078V17.6248H17.7834V19.154H18.1127V18.2915C18.1127 17.8333 18.4877 17.8626 18.6459 17.9413L18.7457 17.6248ZM20.4249 17.0038H20.0956V17.8078C19.7536 17.3541 18.8499 17.5956 18.8499 18.3868C18.8499 19.1953 19.7874 19.4113 20.0956 18.9658V19.1578H20.4249V17.0038ZM20.7421 13.8749V14.0669H20.7751V13.8749H20.8538V13.8419H20.6619V13.8749H20.7421ZM21.0166 19.0325C21.0166 19.0115 21.0166 18.9868 21.0046 18.9658C20.9918 18.953 20.9836 18.9328 20.9716 18.92C20.9596 18.9073 20.9386 18.899 20.9258 18.887C20.9048 18.887 20.8801 18.8743 20.8591 18.8743C20.8463 18.8743 20.8261 18.887 20.8006 18.887C20.7842 18.8963 20.7688 18.9073 20.7549 18.92C20.7339 18.932 20.7219 18.953 20.7219 18.9658C20.7091 18.9868 20.7091 19.0115 20.7091 19.0325C20.7091 19.0453 20.7091 19.0655 20.7219 19.091C20.7219 19.1038 20.7346 19.124 20.7549 19.1368C20.7675 19.151 20.7831 19.1622 20.8006 19.1698C20.8216 19.1818 20.8463 19.1818 20.8591 19.1818C20.8801 19.1818 20.9048 19.1818 20.9258 19.1698C20.9386 19.157 20.9588 19.1488 20.9716 19.1368C20.9843 19.1248 20.9926 19.1038 21.0046 19.091C21.0166 19.0663 21.0166 19.0453 21.0166 19.0325ZM21.1501 13.8374H21.0916L21.0248 13.9829L20.9581 13.8374H20.8996V14.0624H20.9326V13.8914L20.9993 14.0369H21.0451L21.1036 13.8914V14.0624H21.1493L21.1501 13.8374ZM21.3331 10.4828C21.3331 7.30739 18.7457 4.72072 15.5628 4.72072C14.4292 4.72356 13.3212 5.05804 12.3754 5.68294C15.3798 8.15411 15.4255 12.8287 12.3754 15.2871C13.3209 15.9126 14.4291 16.2471 15.5628 16.2494C18.7457 16.2539 21.3331 13.6702 21.3331 10.4828Z" fill="white"/>
</svg>
