<svg width="24" height="24" viewBox="0 0 24 24" fill="none" xmlns="http://www.w3.org/2000/svg">
<path d="M7.76301 12.0915C7.76301 12.6 7.35877 12.987 6.84654 12.987C6.4633 12.987 6.17981 12.7702 6.17981 12.3622C6.17981 11.8537 6.57579 11.4458 7.08428 11.4458C7.47202 11.4458 7.76301 11.6835 7.76301 12.0915ZM3.35465 10.0711H3.1589C3.09665 10.0711 3.03366 10.1131 3.02541 10.1835L2.84616 11.2965L3.18815 11.2838C3.64639 11.2838 4.00037 11.2215 4.08362 10.692C4.17962 10.1333 3.82563 10.0711 3.35465 10.0711ZM15.1878 10.0711H15.0003C14.9253 10.0711 14.875 10.1131 14.8668 10.1835L14.692 11.2965L15.025 11.2838C15.5665 11.2838 15.9415 11.1585 15.9415 10.5338C15.937 10.0921 15.5425 10.0711 15.1878 10.0711ZM24 4.66672V19.3333C23.9998 19.8637 23.789 20.3723 23.4139 20.7474C23.0389 21.1225 22.5302 21.3333 21.9998 21.3335H2.00019C1.46977 21.3333 0.961126 21.1225 0.586061 20.7474C0.210996 20.3723 0.000198772 19.8637 0 19.3333V4.66672C0.000198772 4.1363 0.210996 3.62766 0.586061 3.2526C0.961126 2.87753 1.46977 2.66673 2.00019 2.66653H21.9998C22.5302 2.66673 23.0389 2.87753 23.4139 3.2526C23.789 3.62766 23.9998 4.1363 24 4.66672ZM5.34658 10.308C5.34658 9.43282 4.6716 9.14108 3.90063 9.14108H2.23418C2.18035 9.14149 2.12854 9.16166 2.08859 9.19774C2.04863 9.23382 2.02331 9.28331 2.01744 9.33683L1.33421 13.5907C1.32146 13.6739 1.38446 13.7572 1.4677 13.7572H2.25968C2.37218 13.7572 2.47642 13.6364 2.48917 13.5194L2.67667 12.411C2.71867 12.111 3.2264 12.2152 3.42664 12.2152C4.61836 12.2152 5.34733 11.5073 5.34733 10.3073L5.34658 10.308ZM8.85497 10.6748H8.063C7.90475 10.6748 7.8965 10.9043 7.88825 11.0168C7.64676 10.6628 7.29652 10.5998 6.90053 10.5998C5.87982 10.5998 5.10059 11.4953 5.10059 12.483C5.10059 13.2952 5.60908 13.8247 6.4213 13.8247C6.79629 13.8247 7.26277 13.6207 7.52527 13.329C7.50103 13.4132 7.48693 13.5001 7.48327 13.5877C7.48327 13.6837 7.52527 13.7542 7.61676 13.7542H8.33374C8.44624 13.7542 8.54223 13.6334 8.56323 13.5164L8.98847 10.8375C9.00122 10.758 8.93822 10.6748 8.85497 10.6748ZM10.5424 14.7539L13.1966 10.8953C13.2176 10.8743 13.2176 10.8533 13.2176 10.8248C13.2176 10.7543 13.1553 10.6793 13.0841 10.6793H12.2839C12.2466 10.6808 12.2103 10.6909 12.1777 10.7091C12.1451 10.7272 12.1173 10.7527 12.0964 10.7835L10.9924 12.4087L10.5342 10.8465C10.517 10.799 10.4859 10.7577 10.445 10.7281C10.4041 10.6984 10.3552 10.6817 10.3047 10.68H9.52545C9.4542 10.68 9.39196 10.755 9.39196 10.8255C9.39196 10.8758 10.2042 13.1925 10.2754 13.4129C10.1629 13.5712 9.42121 14.6047 9.42121 14.7299C9.42121 14.8049 9.48345 14.8634 9.5547 14.8634H10.3549C10.3924 14.8609 10.4287 14.8499 10.4612 14.8312C10.4937 14.8125 10.5215 14.7865 10.5424 14.7554V14.7539ZM17.1797 10.308C17.1797 9.43282 16.5047 9.14108 15.7338 9.14108H14.0793C14.0239 9.14064 13.9702 9.16019 13.928 9.19614C13.8859 9.2321 13.8581 9.28205 13.8498 9.33683L13.1748 13.5869C13.1666 13.6702 13.2288 13.7534 13.3083 13.7534H14.1626C14.2458 13.7534 14.3081 13.6912 14.3291 13.6199L14.5165 12.4117C14.5585 12.1117 15.067 12.216 15.2665 12.216C16.45 12.216 17.1797 11.508 17.1797 10.308ZM20.6874 10.6748H19.8954C19.7371 10.6748 19.7289 10.9043 19.7161 11.0168C19.4866 10.6628 19.1327 10.5998 18.7284 10.5998C17.7077 10.5998 16.9285 11.4953 16.9285 12.483C16.9285 13.2952 17.437 13.8247 18.2492 13.8247C18.6369 13.8247 19.1034 13.6207 19.3531 13.329C19.3404 13.3912 19.3111 13.5247 19.3111 13.5877C19.3111 13.6837 19.3531 13.7542 19.4446 13.7542H20.1654C20.2779 13.7542 20.3739 13.6334 20.3949 13.5164L20.8201 10.8375C20.8328 10.758 20.7706 10.6748 20.6874 10.6748ZM22.6665 9.28733C22.6665 9.20408 22.6043 9.14183 22.533 9.14183H21.7621C21.6998 9.14183 21.6368 9.19208 21.6286 9.25433L20.9536 13.5877L20.9416 13.6087C20.9416 13.6837 21.0038 13.7542 21.0871 13.7542H21.7748C21.8791 13.7542 21.9833 13.6334 21.9916 13.5164L22.6665 9.30008V9.28733ZM18.9167 11.4458C18.4082 11.4458 18.0122 11.85 18.0122 12.3622C18.0122 12.7665 18.3039 12.987 18.6872 12.987C19.1874 12.987 19.5916 12.6037 19.5916 12.0915C19.5961 11.6835 19.3044 11.4458 18.9167 11.4458Z" fill="white"/>
</svg>
