<svg width="25" height="24" viewBox="0 0 25 24" fill="none" xmlns="http://www.w3.org/2000/svg">
<path d="M12.54 2C10.5622 2 8.62879 2.58649 6.9843 3.6853C5.33981 4.78412 4.05808 6.3459 3.3012 8.17317C2.54433 10.0004 2.34629 12.0111 2.73215 13.9509C3.118 15.8907 4.07041 17.6725 5.46893 19.0711C6.86746 20.4696 8.64929 21.422 10.5891 21.8079C12.5289 22.1937 14.5396 21.9957 16.3668 21.2388C18.1941 20.4819 19.7559 19.2002 20.8547 17.5557C21.9535 15.9112 22.54 13.9778 22.54 12C22.54 10.6868 22.2813 9.38642 21.7788 8.17317C21.2762 6.95991 20.5397 5.85752 19.6111 4.92893C18.6825 4.00035 17.5801 3.26375 16.3668 2.7612C15.1536 2.25866 13.8532 2 12.54 2ZM10.54 16.5V7.5L16.54 12L10.54 16.5Z" fill="white"/>
</svg>
