<svg width="24" height="24" viewBox="0 0 24 24" fill="none" xmlns="http://www.w3.org/2000/svg">
<path d="M19.5879 10.971C19.5879 10.971 19.9044 12.5212 19.9756 12.846H18.5844L19.2511 11.0333C19.2429 11.046 19.3884 10.6538 19.4716 10.4123L19.5879 10.971ZM24 4.66672V19.3333C23.9998 19.8637 23.789 20.3723 23.4139 20.7474C23.0389 21.1225 22.5302 21.3333 21.9998 21.3335H2.00019C1.46977 21.3333 0.961126 21.1225 0.586061 20.7474C0.210996 20.3723 0.000198772 19.8637 0 19.3333V4.66672C0.000198772 4.1363 0.210996 3.62766 0.586061 3.2526C0.961126 2.87753 1.46977 2.66673 2.00019 2.66653H21.9998C22.5302 2.66673 23.0389 2.87753 23.4139 3.2526C23.789 3.62766 23.9998 4.1363 24 4.66672ZM6.35455 15.1334L8.98772 8.6671H7.21702L5.57983 13.0837L5.40058 12.1882L4.8171 9.21308C4.7211 8.80059 4.42561 8.6836 4.05887 8.6671H1.36346L1.33421 8.79609C1.9515 8.94753 2.54361 9.18751 3.09215 9.50857L4.58386 15.1334H6.35455ZM10.2882 15.1416L11.3381 8.6671H9.66345L8.61798 15.1416H10.2882ZM16.117 13.0252C16.1252 12.288 15.6753 11.7255 14.713 11.2628C14.1258 10.9665 13.7673 10.767 13.7673 10.4625C13.7756 10.1873 14.0718 9.90381 14.7295 9.90381C15.1579 9.89172 15.5836 9.97578 15.9753 10.1498L16.1252 10.2203L16.3547 8.82009C15.876 8.6368 15.3674 8.54349 14.8548 8.54485C13.2003 8.54485 12.0379 9.42832 12.0296 10.686C12.0169 11.6153 12.8628 12.132 13.4966 12.444C14.1423 12.7605 14.3636 12.969 14.3636 13.248C14.3553 13.6814 13.8386 13.8809 13.3593 13.8809C12.6926 13.8809 12.3341 13.7767 11.7881 13.5352L11.5676 13.4309L11.3344 14.8852C11.7259 15.0644 12.4511 15.2226 13.2011 15.2309C14.959 15.2346 16.105 14.3639 16.1177 13.023L16.117 13.0252ZM21.9998 15.1416L20.6499 8.6671H19.3539C18.9542 8.6671 18.6497 8.78409 18.4787 9.20483L15.991 15.1424H17.7489C17.7489 15.1424 18.0362 14.3422 18.0992 14.1719H20.2494C20.2996 14.4014 20.4496 15.1424 20.4496 15.1424L21.9998 15.1416Z" fill="white"/>
</svg>
